1fd2eaaebf44772f959c25b58eda9b5d *tests/data/fate/atrac-aea-remux.aea
100000 tests/data/fate/atrac-aea-remux.aea
#tb 0: 1/44100
#media_type 0: audio
#codec_id 0: atrac1
#sample_rate 0: 44100
#channel_layout_name 0: stereo
0,          0,          0,      512,      424, 0x3b6509a4
0,        512,        512,      512,      424, 0x3b6509a4
0,       1024,       1024,      512,      424, 0x3b6509a4
0,       1536,       1536,      512,      424, 0x3b6509a4
0,       2048,       2048,      512,      424, 0x3b6509a4
0,       2560,       2560,      512,      424, 0x3b6509a4
0,       3072,       3072,      512,      424, 0x3b6509a4
0,       3584,       3584,      512,      424, 0x3b6509a4
0,       4096,       4096,      512,      424, 0x3b6509a4
0,       4608,       4608,      512,      424, 0x3b6509a4
0,       5120,       5120,      512,      424, 0x3b6509a4
0,       5632,       5632,      512,      424, 0x3b6509a4
0,       6144,       6144,      512,      424, 0x3b6509a4
0,       6656,       6656,      512,      424, 0x3b6509a4
0,       7168,       7168,      512,      424, 0x3b6509a4
0,       7680,       7680,      512,      424, 0x3b6509a4
0,       8192,       8192,      512,      424, 0x3b6509a4
0,       8704,       8704,      512,      424, 0x3b6509a4
0,       9216,       9216,      512,      424, 0x3b6509a4
0,       9728,       9728,      512,      424, 0x3b6509a4
0,      10240,      10240,      512,      424, 0x3b6509a4
0,      10752,      10752,      512,      424, 0x3b6509a4
0,      11264,      11264,      512,      424, 0x3b6509a4
0,      11776,      11776,      512,      424, 0x3b6509a4
0,      12288,      12288,      512,      424, 0x3b6509a4
0,      12800,      12800,      512,      424, 0x3b6509a4
0,      13312,      13312,      512,      424, 0x3b6509a4
0,      13824,      13824,      512,      424, 0x3b6509a4
0,      14336,      14336,      512,      424, 0x3b6509a4
0,      14848,      14848,      512,      424, 0x3b6509a4
0,      15360,      15360,      512,      424, 0x3b6509a4
0,      15872,      15872,      512,      424, 0x3b6509a4
0,      16384,      16384,      512,      424, 0x3b6509a4
0,      16896,      16896,      512,      424, 0x3b6509a4
0,      17408,      17408,      512,      424, 0x3b6509a4
0,      17920,      17920,      512,      424, 0x3b6509a4
0,      18432,      18432,      512,      424, 0x3b6509a4
0,      18944,      18944,      512,      424, 0x3b6509a4
0,      19456,      19456,      512,      424, 0x3b6509a4
0,      19968,      19968,      512,      424, 0x3b6509a4
0,      20480,      20480,      512,      424, 0x3b6509a4
0,      20992,      20992,      512,      424, 0x3b6509a4
0,      21504,      21504,      512,      424, 0x3b6509a4
0,      22016,      22016,      512,      424, 0x3b6509a4
0,      22528,      22528,      512,      424, 0x3b6509a4
0,      23040,      23040,      512,      424, 0x3b6509a4
0,      23552,      23552,      512,      424, 0x3b6509a4
0,      24064,      24064,      512,      424, 0x3b6509a4
0,      24576,      24576,      512,      424, 0x3b6509a4
0,      25088,      25088,      512,      424, 0x3b6509a4
0,      25600,      25600,      512,      424, 0x3b6509a4
0,      26112,      26112,      512,      424, 0x3b6509a4
0,      26624,      26624,      512,      424, 0x3b6509a4
0,      27136,      27136,      512,      424, 0x3b6509a4
0,      27648,      27648,      512,      424, 0x3b6509a4
0,      28160,      28160,      512,      424, 0x3b6509a4
0,      28672,      28672,      512,      424, 0x3b6509a4
0,      29184,      29184,      512,      424, 0x3b6509a4
0,      29696,      29696,      512,      424, 0x3b6509a4
0,      30208,      30208,      512,      424, 0x3b6509a4
0,      30720,      30720,      512,      424, 0x3b6509a4
0,      31232,      31232,      512,      424, 0x9699a148
0,      31744,      31744,      512,      424, 0x4b15b57e
0,      32256,      32256,      512,      424, 0x690fbe86
0,      32768,      32768,      512,      424, 0x8980bea4
0,      33280,      33280,      512,      424, 0xc792c244
0,      33792,      33792,      512,      424, 0x57e1bac4
0,      34304,      34304,      512,      424, 0xe813bebe
0,      34816,      34816,      512,      424, 0x022cbf4e
0,      35328,      35328,      512,      424, 0x36e1bdce
0,      35840,      35840,      512,      424, 0x243dbdf4
0,      36352,      36352,      512,      424, 0x8eeebba8
0,      36864,      36864,      512,      424, 0x8088bbac
0,      37376,      37376,      512,      424, 0xf75fbc8c
0,      37888,      37888,      512,      424, 0x9678c284
0,      38400,      38400,      512,      424, 0x45edbc50
0,      38912,      38912,      512,      424, 0xe9ffbe1e
0,      39424,      39424,      512,      424, 0x694bbdf0
0,      39936,      39936,      512,      424, 0x3f1ab970
0,      40448,      40448,      512,      424, 0x6114bbbe
0,      40960,      40960,      512,      424, 0xf67cc210
0,      41472,      41472,      512,      424, 0x9d9cbf4c
0,      41984,      41984,      512,      424, 0x72ecbe4e
0,      42496,      42496,      512,      424, 0x1bb4be96
0,      43008,      43008,      512,      424, 0x467cbc1c
0,      43520,      43520,      512,      424, 0x1b2abc80
0,      44032,      44032,      512,      424, 0xd0e3befc
